<?xml version="1.0" standalone="no"?><!DOCTYPE svg PUBLIC "-//W3C//DTD SVG 1.1//EN" "http://www.w3.org/Graphics/SVG/1.1/DTD/svg11.dtd"><svg t="1679019478515" class="icon" viewBox="0 0 1024 1024" version="1.1" xmlns="http://www.w3.org/2000/svg" p-id="4968" xmlns:xlink="http://www.w3.org/1999/xlink" width="50" height="40"
><path d="M478.12 64.88h67.76c103.54-5.49 241.95 13.46 317.81 94.93 81.48 75.86 100.42 214.27 94.94 317.81v67.76c5.48 103.54-13.45 241.95-94.94 317.81-75.86 81.49-214.27 100.42-317.81 94.94h-67.76c-103.54 5.48-241.95-13.45-317.81-94.94-81.48-75.86-100.42-214.27-94.93-317.81v-67.76c-5.48-103.54 13.45-241.95 94.94-317.81 75.85-81.48 214.26-100.42 317.8-94.93z" fill="#56B9F1" p-id="4969"></path><path d="M552.89 392.04c21.84 17.58 35.84 44.49 35.84 74.71 0 2.16-0.18 4.27-0.32 6.39H397.23c-0.14-2.12-0.32-4.24-0.32-6.39 0-30.96 14.73-58.41 37.49-75.95l-11.06-17.62c-1.77-2.81-0.72-6.41 2.34-8.03 3.06-1.62 6.97-0.66 8.73 2.15l10.37 16.52c14.14-8.21 30.51-12.98 48.03-12.98 18.15 0 35.06 5.13 49.53 13.89l8.88-15.38c1.77-3.06 5.68-4.11 8.73-2.34 3.06 1.77 4.11 5.68 2.34 8.73l-9.4 16.3z m-92.04 36.34c-7.06 0-12.79 5.73-12.79 12.79s5.73 12.79 12.79 12.79 12.79-5.73 12.79-12.79-5.73-12.79-12.79-12.79z m63.94 0c-7.06 0-12.79 5.73-12.79 12.79s5.73 12.79 12.79 12.79c7.06 0 12.79-5.73 12.79-12.79s-5.73-12.79-12.79-12.79z m-31.97 134.28c-46.4 0-85.1-32.95-93.99-76.73H586.8c-8.88 43.77-47.58 76.73-93.98 76.73z" fill="#EFF9FE" p-id="4970"></path><path d="M736.53 704.11c-15.9 15.91-41.68 15.91-57.58 0l-74.87-74.9c-79.04 52.39-186.58 43.76-256.22-25.91-79.5-79.54-79.5-208.5 0-288.03 79.5-79.54 208.4-79.54 287.9 0 69.64 69.67 78.26 177.25 25.9 256.33l74.87 74.9c15.9 15.91 15.9 41.7 0 57.61zM582.99 368.07c-50.35-50.37-131.98-50.37-182.33 0s-50.35 132.05 0 182.42c50.35 50.37 131.98 50.37 182.33 0 50.35-50.37 50.35-132.04 0-182.42z" fill="#EFF9FE" p-id="4971"></path></svg>